<mxfile host="app.diagrams.net" modified="2020-04-10T05:55:41.162Z" agent="5.0 (Windows NT 6.3; Win64; x64) AppleWebKit/537.36 (KHTML, like Gecko) Chrome/80.0.3987.163 Safari/537.36" etag="SD4URa0N7Vp82et1e41H" version="12.9.10" type="github">
  <diagram id="ndRg4_cdgkYj_l6COKCZ" name="Page-1">
    <mxGraphModel dx="1038" dy="626" grid="1" gridSize="10" guides="1" tooltips="1" connect="1" arrows="1" fold="1" page="1" pageScale="1" pageWidth="850" pageHeight="1100" math="0" shadow="0">
      <root>
        <mxCell id="0" />
        <mxCell id="1" parent="0" />
        <mxCell id="FurKF7-hg3qTTIIYsIKP-50" value="Object" style="html=1;fontFamily=Tahoma;" vertex="1" parent="1">
          <mxGeometry x="20" y="1270" width="480" height="560" as="geometry" />
        </mxCell>
        <mxCell id="FurKF7-hg3qTTIIYsIKP-13" value="Student" style="shape=umlActor;verticalLabelPosition=bottom;labelBackgroundColor=#ffffff;verticalAlign=top;html=1;fontFamily=Tahoma;" vertex="1" parent="1">
          <mxGeometry x="120" y="120" width="30" height="60" as="geometry" />
        </mxCell>
        <mxCell id="FurKF7-hg3qTTIIYsIKP-16" value="Register Team" style="ellipse;whiteSpace=wrap;html=1;fontFamily=Tahoma;" vertex="1" parent="1">
          <mxGeometry x="240" y="100" width="110" height="50" as="geometry" />
        </mxCell>
        <mxCell id="FurKF7-hg3qTTIIYsIKP-17" value="Add Mentor" style="ellipse;whiteSpace=wrap;html=1;fontFamily=Tahoma;" vertex="1" parent="1">
          <mxGeometry x="240" y="160" width="110" height="48" as="geometry" />
        </mxCell>
        <mxCell id="FurKF7-hg3qTTIIYsIKP-18" value="Delete Mentor" style="ellipse;whiteSpace=wrap;html=1;fontFamily=Tahoma;" vertex="1" parent="1">
          <mxGeometry x="240" y="225" width="110" height="48" as="geometry" />
        </mxCell>
        <mxCell id="FurKF7-hg3qTTIIYsIKP-19" value="Add Member" style="ellipse;whiteSpace=wrap;html=1;fontFamily=Tahoma;" vertex="1" parent="1">
          <mxGeometry x="240" y="295" width="110" height="48" as="geometry" />
        </mxCell>
        <mxCell id="FurKF7-hg3qTTIIYsIKP-20" value="Delete Member" style="ellipse;whiteSpace=wrap;html=1;fontFamily=Tahoma;" vertex="1" parent="1">
          <mxGeometry x="240" y="360" width="110" height="48" as="geometry" />
        </mxCell>
        <mxCell id="FurKF7-hg3qTTIIYsIKP-21" value="View Member Detail" style="ellipse;whiteSpace=wrap;html=1;fontFamily=Tahoma;" vertex="1" parent="1">
          <mxGeometry x="240" y="420" width="110" height="50" as="geometry" />
        </mxCell>
        <mxCell id="FurKF7-hg3qTTIIYsIKP-22" value="Approve Team" style="ellipse;whiteSpace=wrap;html=1;fontFamily=Tahoma;" vertex="1" parent="1">
          <mxGeometry x="240" y="485" width="110" height="50" as="geometry" />
        </mxCell>
        <mxCell id="FurKF7-hg3qTTIIYsIKP-23" value="Teacher" style="shape=umlActor;verticalLabelPosition=bottom;labelBackgroundColor=#ffffff;verticalAlign=top;html=1;fontFamily=Tahoma;" vertex="1" parent="1">
          <mxGeometry x="120" y="400" width="30" height="60" as="geometry" />
        </mxCell>
        <mxCell id="FurKF7-hg3qTTIIYsIKP-27" value="TBI" style="shape=umlActor;verticalLabelPosition=bottom;labelBackgroundColor=#ffffff;verticalAlign=top;html=1;fontFamily=Tahoma;" vertex="1" parent="1">
          <mxGeometry x="435" y="250" width="30" height="60" as="geometry" />
        </mxCell>
        <mxCell id="FurKF7-hg3qTTIIYsIKP-31" value="&amp;lt;&amp;lt;includes&amp;gt;&amp;gt;" style="html=1;verticalAlign=bottom;endArrow=open;dashed=1;endSize=8;fontFamily=Tahoma;entryX=0;entryY=0.5;entryDx=0;entryDy=0;" edge="1" parent="1" target="FurKF7-hg3qTTIIYsIKP-32">
          <mxGeometry relative="1" as="geometry">
            <mxPoint x="350" y="509.5" as="sourcePoint" />
            <mxPoint x="440" y="510" as="targetPoint" />
          </mxGeometry>
        </mxCell>
        <mxCell id="FurKF7-hg3qTTIIYsIKP-32" value="Approve Team" style="ellipse;whiteSpace=wrap;html=1;fontFamily=Tahoma;" vertex="1" parent="1">
          <mxGeometry x="420" y="435" width="110" height="50" as="geometry" />
        </mxCell>
      </root>
    </mxGraphModel>
  </diagram>
</mxfile>
